<?xml version="1.0" encoding="utf-8"?>
<!-- Generator: Adobe Illustrator 16.2.1, SVG Export Plug-In . SVG Version: 6.00 Build 0)  -->
<!DOCTYPE svg PUBLIC "-//W3C//DTD SVG 1.1//EN" "http://www.w3.org/Graphics/SVG/1.1/DTD/svg11.dtd">
<svg version="1.1" id="Layer_1" xmlns="http://www.w3.org/2000/svg" xmlns:xlink="http://www.w3.org/1999/xlink" x="0px" y="0px"
	 width="179.715px" height="20.6px" viewBox="0 0 179.715 20.6" enable-background="new 0 0 179.715 20.6" xml:space="preserve">
<g>
	<defs>
		<rect id="SVGID_1_" width="179.715" height="20.6"/>
	</defs>
	<clipPath id="SVGID_2_">
		<use xlink:href="#SVGID_1_"  overflow="visible"/>
	</clipPath>
	<path clip-path="url(#SVGID_2_)" fill="#5a325e" d="M0,0.341h6.23c3.24,0,5.767,1.678,5.767,5.123c0,2.933-1.425,4.579-3.327,5.805
		l5.168,9.007l-3.248,0.009l-4.36-8.277H2.758v8.249H0V0.341z M2.758,10.012h2.1c3.53,0,4.183-2.609,4.183-4.292
		c0-2.444-1.539-3.388-3.387-3.388H2.758V10.012"/>
	<rect x="31.403" y="0.341" clip-path="url(#SVGID_2_)" fill="#5a325e" width="2.759" height="19.916"/>
	<path clip-path="url(#SVGID_2_)" fill="#5a325e" d="M75.921,20.256h-2.758V4.042h-0.061c-0.793,2.329-5.32,11.121-7.994,16.215
		h-1.11c-2.472-5.094-6.597-13.596-7.364-16.215h-0.056v16.215h-2.275V0.34h2.956c2.559,5.293,5.118,10.616,7.651,16.225
		c2.815-5.608,5.638-10.932,8.424-16.225h2.587V20.256"/>
	<polygon clip-path="url(#SVGID_2_)" fill="#5a325e" points="171.06,2.332 162.843,2.332 162.843,8.76 169.759,8.76 169.759,10.751
		162.843,10.751 162.843,18.265 171.123,18.265 171.123,20.256 160.083,20.256 160.083,0.34 171.06,0.34 	"/>
	<path clip-path="url(#SVGID_2_)" fill="#5a325e" d="M141.698,11.151v8.114c-1.934,0.68-4.354,1.335-6.887,1.335
		c-7.078,0-10.726-4.891-10.726-10.358C124.086,5.213,128.015,0,135.188,0c2.898,0,5.171,0.94,6.37,1.937l-1.133,1.653
		c-1.202-0.829-3.02-1.596-5.218-1.596c-5.171,0-8.073,3.527-8.073,8.194c0,5.026,3.442,8.421,7.768,8.421
		c1.675,0,2.929-0.177,4.037-0.714v-6.744H141.698"/>
	<rect x="136.858" y="11.146" clip-path="url(#SVGID_2_)" fill="#5a325e" width="4.84" height="1.981"/>
	<path clip-path="url(#SVGID_2_)" fill="#5a325e" d="M102.087,0.034l7.626,20.453h-3.275l-2.098-6.02h-7.805l-2.193,6.02h-2.749
		l8.333-20.453H102.087z M103.661,12.427c-1.016-2.839-2.018-5.67-3.042-9.354h-0.053c-1.055,3.683-2.136,6.515-3.25,9.354H103.661"
		/>
	<path clip-path="url(#SVGID_2_)" fill="#5a325e" d="M176.843,0.274c0.481,0,0.953,0.124,1.412,0.372
		c0.461,0.248,0.818,0.602,1.075,1.063c0.257,0.462,0.385,0.943,0.385,1.444c0,0.495-0.127,0.972-0.379,1.429
		c-0.253,0.458-0.607,0.813-1.063,1.066s-0.933,0.38-1.43,0.38c-0.498,0-0.975-0.127-1.431-0.38s-0.812-0.608-1.065-1.066
		c-0.254-0.457-0.381-0.934-0.381-1.429c0-0.501,0.129-0.982,0.387-1.444c0.258-0.461,0.616-0.815,1.077-1.063
		C175.889,0.398,176.359,0.274,176.843,0.274 M176.843,0.751c-0.404,0-0.797,0.104-1.178,0.311
		c-0.384,0.207-0.683,0.503-0.898,0.889c-0.215,0.384-0.323,0.785-0.323,1.202c0,0.414,0.106,0.811,0.318,1.191
		c0.212,0.38,0.508,0.676,0.889,0.888c0.38,0.212,0.778,0.318,1.192,0.318c0.413,0,0.811-0.106,1.192-0.318
		c0.38-0.212,0.676-0.508,0.886-0.888c0.211-0.38,0.316-0.777,0.316-1.191c0-0.417-0.107-0.818-0.321-1.202
		c-0.215-0.386-0.515-0.682-0.897-0.889S177.244,0.751,176.843,0.751 M175.581,4.744V1.646h1.065c0.364,0,0.628,0.029,0.791,0.086
		s0.293,0.157,0.391,0.299c0.097,0.143,0.145,0.294,0.145,0.454c0,0.226-0.081,0.422-0.244,0.591
		c-0.162,0.167-0.378,0.261-0.646,0.282c0.109,0.045,0.196,0.1,0.264,0.164c0.124,0.122,0.277,0.327,0.457,0.614l0.378,0.608h-0.61
		l-0.274-0.489c-0.216-0.384-0.391-0.625-0.522-0.722c-0.092-0.071-0.226-0.106-0.4-0.104h-0.294v1.315H175.581z M176.079,3.001
		h0.609c0.292,0,0.491-0.043,0.597-0.129c0.105-0.087,0.159-0.202,0.159-0.344c0-0.091-0.025-0.173-0.076-0.246
		c-0.052-0.073-0.122-0.126-0.214-0.162c-0.09-0.036-0.259-0.053-0.504-0.053h-0.571V3.001z"/>
</g>
</svg>
